 <svg  version="1.0" xmlns="http://www.w3.org/2000/svg"  width="300.000000pt" height="300.000000pt" viewBox="0 0 300.000000 300.000000"  preserveAspectRatio="xMidYMid meet">  <g transform="translate(0.000000,300.000000) scale(0.100000,-0.100000)" fill="#007bff" stroke="none"> <path d="M758 1945 c-108 -35 -206 -69 -218 -75 -22 -12 -22 -15 -17 -134 6 -122 25 -218 49 -243 11 -10 24 -5 73 28 73 51 176 99 210 99 53 0 86 -70 48 -102 -10 -8 -52 -30 -93 -50 -102 -50 -160 -100 -160 -140 0 -42 69 -136 167 -229 95 -89 149 -122 163 -99 6 9 9 209 7 510 -2 431 -4 495 -17 496 -8 1 -103 -26 -212 -61z m202 -176 l0 -191 -41 37 c-37 33 -45 37 -81 31 -44 -7 -117 -41 -189 -87 -35 -22 -53 -29 -61 -21 -33 33 -52 278 -23 302 23 19 325 118 363 119 l32 1 0 -191z m5 -444 c-4 -306 -2 -285 -27 -285 -28 0 -208 181 -238 240 -17 33 -20 48 -12 65 12 25 96 82 162 110 53 22 87 50 96 79 15 47 22 -23 19 -209z"/> <path d="M2017 2004 c-4 -4 -7 -76 -7 -160 0 -180 2 -184 100 -209 80 -20 156 -54 236 -106 38 -24 67 -37 77 -33 27 10 48 100 54 229 5 104 3 123 -11 137 -9 9 -101 44 -204 77 -220 70 -235 74 -245 65z m229 -90 c93 -30 177 -63 187 -71 22 -20 23 -140 3 -226 -18 -78 -28 -87 -69 -63 -74 44 -136 73 -192 90 -33 10 -74 22 -92 27 -17 6 -34 17 -37 25 -3 9 -6 74 -6 145 0 119 1 129 19 129 10 0 94 -25 187 -56z"/> <path d="M1633 1850 c-127 -27 -230 -131 -263 -267 -14 -58 -45 -73 -150 -73 l-80 0 0 105 0 105 73 0 c52 0 84 -5 110 -19 l37 -19 15 28 c8 15 26 42 41 59 l26 31 -49 22 c-41 19 -69 23 -195 26 -206 5 -188 40 -188 -353 l0 -315 65 0 65 0 0 99 0 98 103 5 c60 4 117 12 138 21 75 33 127 95 143 173 10 43 49 94 94 121 53 33 143 32 206 -2 26 -14 52 -25 59 -25 7 0 29 21 50 47 34 42 36 48 22 63 -49 54 -221 91 -322 70z m231 -49 c57 -25 67 -45 35 -76 l-24 -24 -55 24 c-142 62 -265 5 -326 -150 -15 -38 -38 -82 -52 -97 -38 -41 -119 -68 -206 -68 -103 0 -118 -13 -122 -110 -3 -80 -10 -93 -45 -88 l-24 3 -3 287 c-2 258 -1 288 15 303 14 15 35 17 160 13 114 -3 146 -7 159 -19 14 -15 13 -18 -8 -43 -21 -25 -27 -26 -63 -19 -34 7 -100 9 -152 4 -27 -2 -42 -56 -39 -139 3 -108 12 -118 111 -121 62 -2 83 2 115 20 36 20 43 30 60 89 11 37 33 85 49 107 34 47 124 109 178 122 60 15 185 6 237 -18z"/> <path d="M1700 1500 l0 -60 76 0 75 0 -3 -52 c-3 -47 -6 -54 -33 -68 -19 -9 -58 -15 -107 -15 -70 0 -79 2 -115 31 -21 17 -47 47 -58 67 -24 43 -34 45 -64 13 -13 -14 -36 -30 -52 -36 -37 -16 -36 -29 4 -81 71 -94 168 -134 307 -127 77 4 98 9 164 42 42 20 81 46 87 57 6 13 9 64 7 131 -3 106 -4 111 -31 134 -26 22 -36 24 -143 24 l-114 0 0 -60z m229 12 c24 -18 26 -25 29 -117 4 -124 3 -125 -141 -184 -15 -6 -66 -11 -114 -11 -74 0 -93 4 -150 31 -45 21 -73 43 -94 72 l-30 42 26 22 c34 30 47 29 74 -7 12 -17 39 -42 61 -56 72 -48 221 -38 267 18 7 8 15 32 17 55 8 57 -10 76 -81 88 -45 8 -59 14 -61 29 -7 32 23 44 100 41 51 -3 79 -9 97 -23z"/> <path d="M2022 1508 c-19 -19 -17 -478 2 -503 13 -19 15 -18 57 10 101 66 279 267 279 315 0 44 -143 139 -259 174 -65 19 -64 19 -79 4z m152 -62 c73 -36 146 -93 146 -115 0 -60 -246 -319 -275 -289 -7 7 -15 407 -8 424 8 22 68 14 137 -20z"/> </g> </svg> 